<svg width="25" height="25" viewBox="0 0 25 25" fill="none" xmlns="http://www.w3.org/2000/svg">
<g opacity="0.5">
<path d="M12.5 0C19.4036 0 25 5.59644 25 12.5C25 19.4036 19.4036 25 12.5 25C5.59644 25 0 19.4036 0 12.5C0 5.59644 5.59644 0 12.5 0ZM12.5 1.66699C6.51694 1.66703 1.66699 6.51694 1.66699 12.5C1.66702 18.483 6.51696 23.333 12.5 23.333C18.4831 23.333 23.333 18.4831 23.333 12.5C23.333 6.51692 18.4831 1.66699 12.5 1.66699Z" fill="#C3C3C3"/>
<path d="M11.1328 8.39453H14.0234V19H11.1328V8.39453ZM12.5781 6.99805C12.2917 6.99805 12.028 6.93294 11.7871 6.80273C11.5462 6.67253 11.3542 6.49349 11.2109 6.26562C11.0677 6.03776 10.9961 5.79362 10.9961 5.5332C10.9961 5.26628 11.0677 5.02214 11.2109 4.80078C11.3542 4.57292 11.5462 4.39388 11.7871 4.26367C12.028 4.13346 12.2917 4.06836 12.5781 4.06836C12.8646 4.06836 13.1283 4.13346 13.3691 4.26367C13.61 4.39388 13.7988 4.57292 13.9355 4.80078C14.0788 5.02214 14.1504 5.26628 14.1504 5.5332C14.1504 5.79362 14.0788 6.03776 13.9355 6.26562C13.7988 6.49349 13.61 6.67253 13.3691 6.80273C13.1283 6.93294 12.8646 6.99805 12.5781 6.99805Z" fill="white"/>
</g>
</svg>
