<svg width="40" height="40" viewBox="0 0 40 40" fill="none" xmlns="http://www.w3.org/2000/svg">
<path d="M34.7335 7.68334C33.8822 6.83168 32.8715 6.15608 31.759 5.69515C30.6466 5.23421 29.4543 4.99696 28.2501 4.99696C27.046 4.99696 25.8536 5.23421 24.7412 5.69515C23.6288 6.15608 22.618 6.83168 21.7668 7.68334L20.0001 9.45001L18.2335 7.68334C16.514 5.96385 14.1818 4.99785 11.7501 4.99785C9.3184 4.99785 6.98627 5.96385 5.26678 7.68334C3.5473 9.40283 2.5813 11.735 2.5813 14.1667C2.5813 16.5984 3.5473 18.9305 5.26678 20.65L20.0001 35.3833L34.7335 20.65C35.5851 19.7987 36.2607 18.788 36.7216 17.6756C37.1826 16.5632 37.4198 15.3708 37.4198 14.1667C37.4198 12.9625 37.1826 11.7702 36.7216 10.6577C36.2607 9.54532 35.5851 8.5346 34.7335 7.68334Z" stroke="#3F3F3F" stroke-width="3" stroke-linecap="round" stroke-linejoin="round"/>
</svg>
