<svg width="70" height="70" viewBox="0 0 70 70" fill="none" xmlns="http://www.w3.org/2000/svg">
<path d="M35 0C54.33 0 70 15.67 70 35C70 54.33 54.33 70 35 70C15.67 70 0 54.33 0 35C0 15.67 15.67 0 35 0ZM35 4.375C18.0863 4.375 4.375 18.0863 4.375 35C4.375 51.9137 18.0863 65.625 35 65.625C51.9137 65.625 65.625 51.9137 65.625 35C65.625 18.0863 51.9137 4.375 35 4.375Z" fill="#C3C3C3"/>
<path d="M56.1292 32.5673C57.7884 33.7648 57.7884 36.2352 56.1292 37.4327L38.0056 50.5122C36.0215 51.9441 33.25 50.5264 33.25 48.0796V21.9204C33.25 19.4736 36.0215 18.0559 38.0056 19.4878L56.1292 32.5673Z" fill="#C3C3C3"/>
<path d="M42.1292 32.5673C43.7884 33.7648 43.7884 36.2352 42.1292 37.4327L24.0056 50.5122C22.0215 51.9441 19.25 50.5264 19.25 48.0796L19.25 21.9204C19.25 19.4736 22.0215 18.0559 24.0056 19.4878L42.1292 32.5673Z" fill="#C3C3C3"/>
</svg>
