<svg width="40" height="40" viewBox="0 0 40 40" fill="none" xmlns="http://www.w3.org/2000/svg">
<path d="M35.0001 21.3167C34.7379 24.1537 33.6732 26.8573 31.9305 29.1113C30.1878 31.3653 27.8392 33.0763 25.1596 34.0442C22.4799 35.0121 19.5801 35.1969 16.7992 34.5768C14.0184 33.9568 11.4717 32.5576 9.45712 30.543C7.44251 28.5283 6.04331 25.9816 5.42326 23.2008C4.80321 20.42 4.98794 17.5201 5.95585 14.8405C6.92375 12.1608 8.6348 9.81228 10.8888 8.06959C13.1427 6.3269 15.8464 5.26218 18.6834 5C17.0224 7.24711 16.2232 10.0157 16.431 12.8024C16.6388 15.589 17.8398 18.2084 19.8158 20.1843C21.7917 22.1602 24.4111 23.3613 27.1977 23.5691C29.9843 23.7769 32.753 22.9776 35.0001 21.3167Z" fill="#C3C3C3" stroke="#C3C3C3" stroke-width="3" stroke-linecap="round" stroke-linejoin="round"/>
</svg>
