<svg width="70" height="70" viewBox="0 0 70 70" fill="none" xmlns="http://www.w3.org/2000/svg">
<path d="M35 0C54.33 0 70 15.67 70 35C70 54.33 54.33 70 35 70C15.67 70 0 54.33 0 35C0 15.67 15.67 0 35 0ZM35 4.375C18.0863 4.375 4.375 18.0863 4.375 35C4.375 51.9137 18.0863 65.625 35 65.625C51.9137 65.625 65.625 51.9137 65.625 35C65.625 18.0863 51.9137 4.375 35 4.375Z" fill="#C3C3C3"/>
<path d="M51.7252 32.4291C53.6637 33.5949 53.6637 36.4051 51.7252 37.5709L29.0461 51.2102C27.0466 52.4127 24.5 50.9726 24.5 48.6393L24.5 21.3606C24.5 19.0274 27.0466 17.5873 29.0461 18.7898L51.7252 32.4291Z" fill="#C3C3C3"/>
</svg>
